<mxfile host="65bd71144e">
    <diagram id="vC9sdrtYz9bclOuGxkR0" name="Page-1">
        <mxGraphModel dx="1239" dy="817" grid="1" gridSize="10" guides="1" tooltips="1" connect="1" arrows="1" fold="1" page="1" pageScale="1" pageWidth="827" pageHeight="1169" math="0" shadow="0">
            <root>
                <mxCell id="0"/>
                <mxCell id="1" parent="0"/>
                <mxCell id="2" value="" style="shape=actor;whiteSpace=wrap;html=1;" parent="1" vertex="1">
                    <mxGeometry x="20" y="30" width="40" height="60" as="geometry"/>
                </mxCell>
                <mxCell id="3" value="Vivlio" style="rounded=1;whiteSpace=wrap;html=1;" parent="1" vertex="1">
                    <mxGeometry x="260" y="240" width="270" height="200" as="geometry"/>
                </mxCell>
                <mxCell id="4" value="&lt;h1&gt;User (Reader)&lt;/h1&gt;&lt;p&gt;Vivlio reader reads books from the vivlio library. Has unlimited access to books, and has books recommended to him by the library&lt;/p&gt;&lt;p&gt;&lt;br&gt;&lt;/p&gt;&lt;p&gt;&lt;br&gt;&lt;/p&gt;" style="text;html=1;strokeColor=none;fillColor=none;spacing=5;spacingTop=-20;whiteSpace=wrap;overflow=hidden;rounded=0;" parent="1" vertex="1">
                    <mxGeometry x="70" y="10" width="190" height="120" as="geometry"/>
                </mxCell>
                <mxCell id="5" value="" style="endArrow=classic;html=1;entryX=0.029;entryY=0.036;entryDx=0;entryDy=0;entryPerimeter=0;" parent="1" target="3" edge="1">
                    <mxGeometry width="50" height="50" relative="1" as="geometry">
                        <mxPoint x="50" y="90" as="sourcePoint"/>
                        <mxPoint x="100" y="40" as="targetPoint"/>
                    </mxGeometry>
                </mxCell>
                <mxCell id="8" value="" style="rounded=1;whiteSpace=wrap;html=1;fontStyle=1" parent="1" vertex="1">
                    <mxGeometry x="350" y="580" width="660" height="470" as="geometry"/>
                </mxCell>
                <mxCell id="9" value="" style="endArrow=classic;startArrow=classic;html=1;exitX=0.919;exitY=1.004;exitDx=0;exitDy=0;exitPerimeter=0;entryX=0.403;entryY=-0.002;entryDx=0;entryDy=0;entryPerimeter=0;" parent="1" source="3" edge="1" target="8">
                    <mxGeometry width="50" height="50" relative="1" as="geometry">
                        <mxPoint x="520" y="470" as="sourcePoint"/>
                        <mxPoint x="610" y="570" as="targetPoint"/>
                    </mxGeometry>
                </mxCell>
                <mxCell id="10" value="Web Api Interface (.NET)&lt;br&gt;Provides app functionalities using Json&amp;nbsp;" style="rounded=1;whiteSpace=wrap;html=1;" parent="1" vertex="1">
                    <mxGeometry x="770" y="820" width="160" height="140" as="geometry"/>
                </mxCell>
                <mxCell id="12" value="MySql Database" style="shape=datastore;whiteSpace=wrap;html=1;" parent="1" vertex="1">
                    <mxGeometry x="390" y="690" width="150" height="130" as="geometry"/>
                </mxCell>
                <mxCell id="13" value="" style="endArrow=classic;startArrow=classic;html=1;exitX=0.99;exitY=0.415;exitDx=0;exitDy=0;exitPerimeter=0;" parent="1" source="12" target="10" edge="1">
                    <mxGeometry width="50" height="50" relative="1" as="geometry">
                        <mxPoint x="610" y="690" as="sourcePoint"/>
                        <mxPoint x="660" y="640" as="targetPoint"/>
                    </mxGeometry>
                </mxCell>
                <mxCell id="18" value="Manages data&amp;nbsp;&lt;br&gt;for the web api&lt;br&gt;" style="edgeLabel;html=1;align=center;verticalAlign=middle;resizable=0;points=[];" parent="13" vertex="1" connectable="0">
                    <mxGeometry x="0.0056" y="2" relative="1" as="geometry">
                        <mxPoint y="-1" as="offset"/>
                    </mxGeometry>
                </mxCell>
                <mxCell id="14" value="Single Page Application (React) Manages uses interfaces&amp;nbsp;" style="rounded=1;whiteSpace=wrap;html=1;" parent="1" vertex="1">
                    <mxGeometry x="370" y="920" width="120" height="60" as="geometry"/>
                </mxCell>
                <mxCell id="16" value="" style="endArrow=classic;startArrow=classic;html=1;" parent="1" source="14" target="10" edge="1">
                    <mxGeometry width="50" height="50" relative="1" as="geometry">
                        <mxPoint x="610" y="830" as="sourcePoint"/>
                        <mxPoint x="660" y="780" as="targetPoint"/>
                    </mxGeometry>
                </mxCell>
                <mxCell id="17" value="Gets API data from Web Api" style="edgeLabel;html=1;align=center;verticalAlign=middle;resizable=0;points=[];" parent="16" vertex="1" connectable="0">
                    <mxGeometry x="-0.1029" y="-3" relative="1" as="geometry">
                        <mxPoint as="offset"/>
                    </mxGeometry>
                </mxCell>
                <mxCell id="20" value="" style="endArrow=classic;startArrow=classic;html=1;entryX=0.931;entryY=0.991;entryDx=0;entryDy=0;entryPerimeter=0;exitX=0.138;exitY=-0.002;exitDx=0;exitDy=0;exitPerimeter=0;" edge="1" parent="1" source="21" target="10">
                    <mxGeometry width="50" height="50" relative="1" as="geometry">
                        <mxPoint x="850" y="900" as="sourcePoint"/>
                        <mxPoint x="900" y="850" as="targetPoint"/>
                    </mxGeometry>
                </mxCell>
                <mxCell id="21" value="" style="rounded=1;whiteSpace=wrap;html=1;arcSize=16;" vertex="1" parent="1">
                    <mxGeometry x="950" y="1160" width="1040" height="920" as="geometry"/>
                </mxCell>
                <mxCell id="26" value="Authentication Service&lt;br&gt;1. Manages Reader signup&lt;br&gt;2. Manages Author signup&lt;br&gt;3. Manages Reader/Author verification&lt;br&gt;4.Manages Reader/Author Authorization" style="rounded=0;whiteSpace=wrap;html=1;" vertex="1" parent="1">
                    <mxGeometry x="1030" y="1540" width="190" height="110" as="geometry"/>
                </mxCell>
                <mxCell id="28" value="" style="endArrow=classic;html=1;exitX=0.449;exitY=0.995;exitDx=0;exitDy=0;exitPerimeter=0;" edge="1" parent="1" target="26">
                    <mxGeometry width="50" height="50" relative="1" as="geometry">
                        <mxPoint x="1101.8400000000001" y="1359.1999999999998" as="sourcePoint"/>
                        <mxPoint x="1220" y="1490" as="targetPoint"/>
                    </mxGeometry>
                </mxCell>
                <mxCell id="29" value="Uses" style="edgeLabel;html=1;align=center;verticalAlign=middle;resizable=0;points=[];" vertex="1" connectable="0" parent="28">
                    <mxGeometry x="-0.0503" y="-2" relative="1" as="geometry">
                        <mxPoint x="1" as="offset"/>
                    </mxGeometry>
                </mxCell>
                <mxCell id="31" value="Author Controller" style="rounded=0;whiteSpace=wrap;html=1;" vertex="1" parent="1">
                    <mxGeometry x="1330" y="1300" width="170" height="60" as="geometry"/>
                </mxCell>
                <mxCell id="32" value="Authentication Controller" style="rounded=0;whiteSpace=wrap;html=1;" vertex="1" parent="1">
                    <mxGeometry x="1050" y="1300" width="120" height="60" as="geometry"/>
                </mxCell>
                <mxCell id="33" value="Uses" style="endArrow=classic;html=1;exitX=0.25;exitY=1;exitDx=0;exitDy=0;" edge="1" parent="1" source="31">
                    <mxGeometry width="50" height="50" relative="1" as="geometry">
                        <mxPoint x="1170" y="1590" as="sourcePoint"/>
                        <mxPoint x="1220" y="1540" as="targetPoint"/>
                    </mxGeometry>
                </mxCell>
                <mxCell id="34" value="Author Service&lt;br&gt;1. Allows author upload books&lt;br&gt;2. Validates books uploaded by author&lt;br&gt;3. Access book statistics&lt;br&gt;4. Manage Commision Payment to users&amp;nbsp;" style="rounded=0;whiteSpace=wrap;html=1;" vertex="1" parent="1">
                    <mxGeometry x="1355" y="1540" width="145" height="110" as="geometry"/>
                </mxCell>
                <mxCell id="36" value="" style="endArrow=classic;html=1;entryX=0.5;entryY=0;entryDx=0;entryDy=0;exitX=0.5;exitY=1;exitDx=0;exitDy=0;" edge="1" parent="1" source="31" target="34">
                    <mxGeometry width="50" height="50" relative="1" as="geometry">
                        <mxPoint x="1410" y="1500" as="sourcePoint"/>
                        <mxPoint x="1460" y="1450" as="targetPoint"/>
                    </mxGeometry>
                </mxCell>
                <mxCell id="37" value="Uses" style="edgeLabel;html=1;align=center;verticalAlign=middle;resizable=0;points=[];" vertex="1" connectable="0" parent="36">
                    <mxGeometry x="-0.0151" y="-4" relative="1" as="geometry">
                        <mxPoint as="offset"/>
                    </mxGeometry>
                </mxCell>
                <mxCell id="38" value="Reader Controller" style="rounded=0;whiteSpace=wrap;html=1;" vertex="1" parent="1">
                    <mxGeometry x="1590" y="1300" width="120" height="60" as="geometry"/>
                </mxCell>
                <mxCell id="41" value="Reader Service&lt;br&gt;1. Allow readers access to books&lt;br&gt;2. Reader Upvotes or downvotes books&lt;br&gt;3. Manages reader subscription&lt;br&gt;" style="rounded=0;whiteSpace=wrap;html=1;" vertex="1" parent="1">
                    <mxGeometry x="1630" y="1430" width="140" height="170" as="geometry"/>
                </mxCell>
                <mxCell id="42" value="Recommendation Services&lt;br&gt;" style="rounded=0;whiteSpace=wrap;html=1;" vertex="1" parent="1">
                    <mxGeometry x="1440" y="1770" width="130" height="130" as="geometry"/>
                </mxCell>
                <mxCell id="43" value="" style="endArrow=classic;html=1;entryX=1.001;entryY=0.381;entryDx=0;entryDy=0;entryPerimeter=0;" edge="1" parent="1" source="38" target="26">
                    <mxGeometry width="50" height="50" relative="1" as="geometry">
                        <mxPoint x="1580" y="1520" as="sourcePoint"/>
                        <mxPoint x="1630" y="1470" as="targetPoint"/>
                    </mxGeometry>
                </mxCell>
                <mxCell id="44" value="Uses" style="edgeLabel;html=1;align=center;verticalAlign=middle;resizable=0;points=[];" vertex="1" connectable="0" parent="43">
                    <mxGeometry x="-0.2979" y="-3" relative="1" as="geometry">
                        <mxPoint as="offset"/>
                    </mxGeometry>
                </mxCell>
                <mxCell id="45" value="Uses" style="endArrow=classic;html=1;" edge="1" parent="1" source="38" target="41">
                    <mxGeometry x="-0.0025" width="50" height="50" relative="1" as="geometry">
                        <mxPoint x="1580" y="1520" as="sourcePoint"/>
                        <mxPoint x="1630" y="1470" as="targetPoint"/>
                        <mxPoint as="offset"/>
                    </mxGeometry>
                </mxCell>
                <mxCell id="48" value="" style="endArrow=classic;html=1;entryX=1;entryY=0.25;entryDx=0;entryDy=0;exitX=0.425;exitY=0.998;exitDx=0;exitDy=0;exitPerimeter=0;" edge="1" parent="1" source="41" target="42">
                    <mxGeometry width="50" height="50" relative="1" as="geometry">
                        <mxPoint x="1604" y="1770" as="sourcePoint"/>
                        <mxPoint x="1654" y="1720" as="targetPoint"/>
                    </mxGeometry>
                </mxCell>
                <mxCell id="49" value="Uses" style="edgeLabel;html=1;align=center;verticalAlign=middle;resizable=0;points=[];" vertex="1" connectable="0" parent="48">
                    <mxGeometry x="0.0228" y="4" relative="1" as="geometry">
                        <mxPoint as="offset"/>
                    </mxGeometry>
                </mxCell>
                <mxCell id="51" value="Subsrciption Service" style="rounded=0;whiteSpace=wrap;html=1;" vertex="1" parent="1">
                    <mxGeometry x="1750" y="1724" width="120" height="60" as="geometry"/>
                </mxCell>
                <mxCell id="52" value="Uses" style="endArrow=classic;html=1;" edge="1" parent="1" source="41" target="51">
                    <mxGeometry width="50" height="50" relative="1" as="geometry">
                        <mxPoint x="1740" y="1670" as="sourcePoint"/>
                        <mxPoint x="1790" y="1620" as="targetPoint"/>
                    </mxGeometry>
                </mxCell>
                <mxCell id="53" value="Payment Service&lt;br&gt;" style="whiteSpace=wrap;html=1;aspect=fixed;" vertex="1" parent="1">
                    <mxGeometry x="1230" y="70" width="340" height="340" as="geometry"/>
                </mxCell>
                <mxCell id="54" value="" style="endArrow=classic;html=1;exitX=1.002;exitY=0.438;exitDx=0;exitDy=0;exitPerimeter=0;entryX=-0.008;entryY=0.437;entryDx=0;entryDy=0;entryPerimeter=0;" edge="1" parent="1" source="3" target="53">
                    <mxGeometry width="50" height="50" relative="1" as="geometry">
                        <mxPoint x="910" y="270" as="sourcePoint"/>
                        <mxPoint x="960" y="220" as="targetPoint"/>
                    </mxGeometry>
                </mxCell>
                <mxCell id="55" value="" style="endArrow=classic;html=1;exitX=1.002;exitY=0.352;exitDx=0;exitDy=0;exitPerimeter=0;" edge="1" parent="1" source="8" target="53">
                    <mxGeometry width="50" height="50" relative="1" as="geometry">
                        <mxPoint x="540.54" y="337.5999999999999" as="sourcePoint"/>
                        <mxPoint x="1237.2800000000002" y="228.57999999999993" as="targetPoint"/>
                    </mxGeometry>
                </mxCell>
                <mxCell id="57" value="" style="shape=actor;whiteSpace=wrap;html=1;" vertex="1" parent="1">
                    <mxGeometry x="20" y="450" width="40" height="60" as="geometry"/>
                </mxCell>
                <mxCell id="58" value="&lt;h1&gt;User (Author)&lt;/h1&gt;&lt;p&gt;Vivlio reader uploads books to the vivlio library. Is paid commission when his books are read&lt;/p&gt;&lt;p&gt;&lt;br&gt;&lt;/p&gt;&lt;p&gt;&lt;br&gt;&lt;/p&gt;" style="text;html=1;strokeColor=none;fillColor=none;spacing=5;spacingTop=-20;whiteSpace=wrap;overflow=hidden;rounded=0;" vertex="1" parent="1">
                    <mxGeometry x="10" y="500" width="190" height="120" as="geometry"/>
                </mxCell>
                <mxCell id="59" value="" style="endArrow=classic;html=1;exitX=0.9;exitY=0.5;exitDx=0;exitDy=0;exitPerimeter=0;entryX=0.007;entryY=0.939;entryDx=0;entryDy=0;entryPerimeter=0;" edge="1" parent="1" source="57" target="3">
                    <mxGeometry width="50" height="50" relative="1" as="geometry">
                        <mxPoint x="580" y="480" as="sourcePoint"/>
                        <mxPoint x="250" y="390" as="targetPoint"/>
                    </mxGeometry>
                </mxCell>
                <mxCell id="62" value="Payment Service&lt;br&gt;" style="rounded=0;whiteSpace=wrap;html=1;" vertex="1" parent="1">
                    <mxGeometry x="1830" y="1880" width="120" height="60" as="geometry"/>
                </mxCell>
                <mxCell id="74" value="" style="curved=1;endArrow=classic;html=1;" edge="1" parent="1" target="53">
                    <mxGeometry width="50" height="50" relative="1" as="geometry">
                        <mxPoint x="1950" y="1920" as="sourcePoint"/>
                        <mxPoint x="2000" y="1870" as="targetPoint"/>
                        <Array as="points">
                            <mxPoint x="2000" y="1920"/>
                            <mxPoint x="1950" y="1870"/>
                        </Array>
                    </mxGeometry>
                </mxCell>
                <mxCell id="83" value="Uses" style="edgeLabel;html=1;align=center;verticalAlign=middle;resizable=0;points=[];" vertex="1" connectable="0" parent="74">
                    <mxGeometry x="0.1035" y="-5" relative="1" as="geometry">
                        <mxPoint as="offset"/>
                    </mxGeometry>
                </mxCell>
                <mxCell id="76" value="Uses" style="endArrow=classic;html=1;exitX=1;exitY=1;exitDx=0;exitDy=0;entryX=0;entryY=0;entryDx=0;entryDy=0;" edge="1" parent="1" source="34" target="62">
                    <mxGeometry width="50" height="50" relative="1" as="geometry">
                        <mxPoint x="1610" y="1710" as="sourcePoint"/>
                        <mxPoint x="1660" y="1660" as="targetPoint"/>
                    </mxGeometry>
                </mxCell>
                <mxCell id="81" value="" style="endArrow=classic;html=1;" edge="1" parent="1" target="62">
                    <mxGeometry width="50" height="50" relative="1" as="geometry">
                        <mxPoint x="1870" y="1784" as="sourcePoint"/>
                        <mxPoint x="1920" y="1734" as="targetPoint"/>
                    </mxGeometry>
                </mxCell>
                <mxCell id="82" value="Uses" style="edgeLabel;html=1;align=center;verticalAlign=middle;resizable=0;points=[];" vertex="1" connectable="0" parent="81">
                    <mxGeometry x="-0.2037" y="-1" relative="1" as="geometry">
                        <mxPoint as="offset"/>
                    </mxGeometry>
                </mxCell>
            </root>
        </mxGraphModel>
    </diagram>
</mxfile>